<?xml version="1.0" encoding="UTF-8" standalone="no"?>
<!-- Created with Inkscape (http://www.inkscape.org/) -->

<svg
   width="24.86928mm"
   height="24.86928mm"
   viewBox="0 0 24.86928 24.86928"
   version="1.1"
   id="svg1"
   xml:space="preserve"
   inkscape:version="1.3.1 (9b9bdc1480, 2023-11-25, custom)"
   sodipodi:docname="logo.svg"
   xmlns:inkscape="http://www.inkscape.org/namespaces/inkscape"
   xmlns:sodipodi="http://sodipodi.sourceforge.net/DTD/sodipodi-0.dtd"
   xmlns="http://www.w3.org/2000/svg"
   xmlns:svg="http://www.w3.org/2000/svg"><sodipodi:namedview
     id="namedview1"
     pagecolor="#ffffff"
     bordercolor="#666666"
     borderopacity="1.0"
     inkscape:showpageshadow="2"
     inkscape:pageopacity="0.0"
     inkscape:pagecheckerboard="0"
     inkscape:deskcolor="#d1d1d1"
     inkscape:document-units="mm"
     inkscape:zoom="1.5585218"
     inkscape:cx="396.85039"
     inkscape:cy="537.04734"
     inkscape:window-width="1920"
     inkscape:window-height="1011"
     inkscape:window-x="1600"
     inkscape:window-y="32"
     inkscape:window-maximized="1"
     inkscape:current-layer="g6" /><defs
     id="defs1" /><g
     inkscape:label="Layer 1"
     inkscape:groupmode="layer"
     id="layer1"
     transform="translate(-120.38542,-153.72292)"><g
       id="g6"
       transform="matrix(0.32203681,0,0,0.32203681,69.985417,91.153513)"><g
         id="g2"><rect
           style="fill:#ffffff;fill-opacity:0;stroke-width:0.634761;stroke-dasharray:none"
           id="rect8-3"
           width="77.22496"
           height="77.22496"
           x="156.50385"
           y="194.29271" /><g
           id="g7-5-5"
           transform="translate(158.84352,146.8668)"><path
             style="fill:#7c3aed;fill-opacity:1;stroke-width:1.46774;stroke-dasharray:none"
             d="m 119.43258,451.97279 c -22.238712,-2.5328 -33.160232,-4.40727 -47.366347,-8.12949 -12.938225,-3.39 -17.303603,-5.21297 -20.776169,-8.67604 l -4.396291,-4.38428 -0.415523,-57.08701 c -0.392592,-53.93651 -0.259668,-57.39239 2.408567,-62.62038 3.590257,-7.03453 7.367978,-10.42899 14.396042,-12.93552 8.159333,-2.90998 139.310431,-2.90998 147.469771,0 7.00379,2.49787 10.80513,5.89973 14.34687,12.83915 2.58095,5.05693 2.77493,9.38642 2.77493,61.93596 v 56.49897 l -4.76265,5.09004 c -3.94775,4.21912 -7.14465,5.72386 -18.68424,8.79443 -7.65687,2.0374 -19.85658,4.67958 -27.11046,5.87151 -13.29878,2.18517 -48.38864,3.88416 -57.8845,2.80266 z m 23.47622,-40.93473 c 6.27588,-3.24539 7.29782,-6.32659 7.29782,-22.00336 0,-14.02225 0.0462,-14.20534 5.0681,-20.07227 13.7113,-16.01857 4.27801,-38.9896 -16.56847,-40.34592 -23.05678,-1.50013 -34.73126,23.57556 -19.20757,41.25606 4.159,4.73684 4.33019,5.49284 4.33019,19.12264 0,15.95874 1.15294,19.22462 7.80889,22.11992 5.91446,2.57274 6.14998,2.57113 11.27104,-0.0771 z"
             id="path5-3-6"
             transform="scale(0.26458333)" /><path
             style="fill:#7c3aed;fill-opacity:1;stroke-width:1.46774;stroke-dasharray:none"
             d="m 71.295977,269.27284 c 0.539821,-20.55113 0.63458,-21.06325 5.973558,-32.28392 9.848708,-20.69855 27.715315,-34.26411 50.200455,-38.11565 32.24544,-5.52341 66.41318,17.77345 73.93797,50.4137 0.81538,3.53685 1.49862,14.1791 1.51833,23.64944 l 0.0358,17.21881 H 189.9204 176.87869 l -0.56151,-18.68424 c -0.62275,-20.72155 -2.47282,-26.32779 -11.74957,-35.60454 -14.69763,-14.69764 -40.32196,-14.61759 -55.14425,0.17226 -9.29479,9.27445 -11.081472,14.6829 -11.705051,35.43228 l -0.561516,18.68424 H 83.952123 70.747454 Z"
             id="path6-5-2"
             transform="scale(0.26458333)" /></g></g></g></g></svg>
